<svg width="476" height="117" viewBox="0 0 476 117" fill="none" xmlns="http://www.w3.org/2000/svg">
<path d="M87.9414 92C73.0747 93.3333 60.7414 94 50.9414 94C44.4081 94 39.6081 92.4667 36.5414 89.4C33.4747 86.3333 31.9414 81.5333 31.9414 75V43C31.9414 36 33.5081 30.9333 36.6414 27.8C39.8414 24.6 44.9414 23 51.9414 23H87.9414V37H55.9414C51.9414 37 49.9414 39 49.9414 43V75C49.9414 76.5333 50.3747 77.7667 51.2414 78.7C52.1747 79.5667 53.3414 80 54.7414 80C56.1414 80 57.6747 80 59.3414 80C61.0081 79.9333 62.7414 79.8667 64.5414 79.8C66.3414 79.7333 68.1414 79.6667 69.9414 79.6C71.8081 79.5333 74.1747 79.4 77.0414 79.2C79.9747 79 83.6081 78.7667 87.9414 78.5V92ZM95.9531 23H137.953C144.953 23 150.02 24.6 153.153 27.8C156.353 30.9333 157.953 36 157.953 43V52C157.953 57.5333 157.02 61.8333 155.153 64.9C153.353 67.9667 150.453 70 146.453 71L158.953 93H139.453L127.953 72H113.953V93H95.9531V23ZM139.953 43C139.953 39 137.953 37 133.953 37H113.953V58H133.953C137.953 58 139.953 56 139.953 52V43ZM301.973 93H282.973L258.973 51V93H240.973V23H259.973L283.973 65V23H301.973V93ZM384.966 78.5C403.233 79.5 415.6 80 422.066 80C423.6 80 424.8 79.5667 425.666 78.7C426.6 77.7667 427.066 76.5333 427.066 75V66H404.066C397.066 66 391.966 64.4333 388.766 61.3C385.633 58.1 384.066 53 384.066 46V43C384.066 36 385.633 30.9333 388.766 27.8C391.966 24.6 397.066 23 404.066 23H439.166V37H408.066C404.066 37 402.066 39 402.066 43V45C402.066 49 404.066 51 408.066 51H426.066C432.6 51 437.4 52.5333 440.466 55.6C443.533 58.6667 445.066 63.4667 445.066 70V75C445.066 81.5333 443.533 86.3333 440.466 89.4C437.4 92.4667 432.6 94 426.066 94C422.666 94 419.066 93.9333 415.266 93.8L406.066 93.4C399.266 93.0667 392.233 92.6 384.966 92V78.5Z" fill="#2E52B2"/>
<path d="M212.926 42C212.926 38 210.926 36 206.926 36H189.926C185.926 36 183.926 38 183.926 42V74C183.926 78 185.926 80 189.926 80H206.926C210.926 80 212.926 78 212.926 74V42ZM230.926 74C230.926 81 229.326 86.1 226.126 89.3C222.992 92.4333 217.926 94 210.926 94H185.926C178.926 94 173.826 92.4333 170.626 89.3C167.492 86.1 165.926 81 165.926 74V42C165.926 35 167.492 29.9333 170.626 26.8C173.826 23.6 178.926 22 185.926 22H210.926C217.926 22 222.992 23.6 226.126 26.8C229.326 29.9333 230.926 35 230.926 42V74ZM359.02 42C359.02 38 357.02 36 353.02 36H336.02C332.02 36 330.02 38 330.02 42V74C330.02 78 332.02 80 336.02 80H353.02C357.02 80 359.02 78 359.02 74V42ZM377.02 74C377.02 81 375.42 86.1 372.22 89.3C369.086 92.4333 364.02 94 357.02 94H332.02C325.02 94 319.92 92.4333 316.72 89.3C313.586 86.1 312.02 81 312.02 74V42C312.02 35 313.586 29.9333 316.72 26.8C319.92 23.6 325.02 22 332.02 22H357.02C364.02 22 369.086 23.6 372.22 26.8C375.42 29.9333 377.02 35 377.02 42V74Z" fill="#D80027"/>
<rect x="105" y="33" width="40" height="29" fill="#2E52B2"/>
<path d="M127.5 31L131.204 42.4012H143.192L133.494 49.4476L137.198 60.8488L127.5 53.8024L117.802 60.8488L121.506 49.4476L111.808 42.4012H123.796L127.5 31Z" fill="white"/>
<rect x="330" y="36" width="29" height="44" fill="#D80027"/>
<path d="M345.5 57L356.325 72.75H334.675L345.5 57Z" fill="white"/>
<path d="M345.5 60L356.325 44.25H334.675L345.5 60Z" fill="white"/>
<rect x="333" y="39" width="25" height="4" fill="white"/>
<rect x="333" y="74" width="25" height="4" fill="white"/>
<rect x="183" y="36" width="30" height="44" fill="#D80027"/>
<path d="M198.5 57L209.325 72.75H187.675L198.5 57Z" fill="white"/>
<path d="M198.5 60L209.325 44.25H187.675L198.5 60Z" fill="white"/>
<rect x="186" y="39" width="25" height="4" fill="white"/>
<rect x="186" y="74" width="25" height="4" fill="white"/>
</svg>
