<svg width="415" height="75" viewBox="0 0 415 75" fill="none" xmlns="http://www.w3.org/2000/svg">
<path d="M56.9414 72C42.0747 73.3333 29.7414 74 19.9414 74C13.4081 74 8.60807 72.4667 5.54141 69.4C2.47474 66.3333 0.941407 61.5333 0.941407 55V23C0.941407 16 2.50807 10.9333 5.64141 7.8C8.84141 4.6 13.9414 3 20.9414 3H56.9414V17H24.9414C20.9414 17 18.9414 19 18.9414 23V55C18.9414 56.5333 19.3747 57.7667 20.2414 58.7C21.1747 59.5667 22.3414 60 23.7414 60C25.1414 60 26.6747 60 28.3414 60C30.0081 59.9333 31.7414 59.8667 33.5414 59.8C35.3414 59.7333 37.1414 59.6667 38.9414 59.6C40.8081 59.5333 43.1747 59.4 46.0414 59.2C48.9747 59 52.6081 58.7667 56.9414 58.5V72ZM64.9531 3H106.953C113.953 3 119.02 4.6 122.153 7.8C125.353 10.9333 126.953 16 126.953 23V32C126.953 37.5333 126.02 41.8333 124.153 44.9C122.353 47.9667 119.453 50 115.453 51L127.953 73H108.453L96.9531 52H82.9531V73H64.9531V3ZM108.953 23C108.953 19 106.953 17 102.953 17H82.9531V38H102.953C106.953 38 108.953 36 108.953 32V23ZM270.973 73H251.973L227.973 31V73H209.973V3H228.973L252.973 45V3H270.973V73ZM353.966 58.5C372.233 59.5 384.6 60 391.066 60C392.6 60 393.8 59.5667 394.666 58.7C395.6 57.7667 396.066 56.5333 396.066 55V46H373.066C366.066 46 360.966 44.4333 357.766 41.3C354.633 38.1 353.066 33 353.066 26V23C353.066 16 354.633 10.9333 357.766 7.8C360.966 4.6 366.066 3 373.066 3H408.166V17H377.066C373.066 17 371.066 19 371.066 23V25C371.066 29 373.066 31 377.066 31H395.066C401.6 31 406.4 32.5333 409.466 35.6C412.533 38.6667 414.066 43.4667 414.066 50V55C414.066 61.5333 412.533 66.3333 409.466 69.4C406.4 72.4667 401.6 74 395.066 74C391.666 74 388.066 73.9333 384.266 73.8L375.066 73.4C368.266 73.0667 361.233 72.6 353.966 72V58.5Z" fill="#2E52B2"/>
<path d="M181.926 22C181.926 18 179.926 16 175.926 16H158.926C154.926 16 152.926 18 152.926 22V54C152.926 58 154.926 60 158.926 60H175.926C179.926 60 181.926 58 181.926 54V22ZM199.926 54C199.926 61 198.326 66.1 195.126 69.3C191.992 72.4333 186.926 74 179.926 74H154.926C147.926 74 142.826 72.4333 139.626 69.3C136.492 66.1 134.926 61 134.926 54V22C134.926 15 136.492 9.93333 139.626 6.79999C142.826 3.6 147.926 2 154.926 2H179.926C186.926 2 191.992 3.6 195.126 6.79999C198.326 9.93333 199.926 15 199.926 22V54ZM328.02 22C328.02 18 326.02 16 322.02 16H305.02C301.02 16 299.02 18 299.02 22V54C299.02 58 301.02 60 305.02 60H322.02C326.02 60 328.02 58 328.02 54V22ZM346.02 54C346.02 61 344.42 66.1 341.22 69.3C338.086 72.4333 333.02 74 326.02 74H301.02C294.02 74 288.92 72.4333 285.72 69.3C282.586 66.1 281.02 61 281.02 54V22C281.02 15 282.586 9.93333 285.72 6.79999C288.92 3.6 294.02 2 301.02 2H326.02C333.02 2 338.086 3.6 341.22 6.79999C344.42 9.93333 346.02 15 346.02 22V54Z" fill="#D80027"/>
<path d="M134.5 37.5H200.5V64C200.5 69.5228 196.023 74 190.5 74H144.5C138.977 74 134.5 69.5228 134.5 64V37.5Z" fill="#D80027"/>
<path d="M134.5 11.5C134.5 5.97715 138.977 1.5 144.5 1.5H190.5C196.023 1.5 200.5 5.97715 200.5 11.5V38H134.5V11.5Z" fill="#2E52B2"/>
<rect x="159.5" y="0.5" width="16.2462" height="74" fill="white"/>
<rect x="133.5" y="29.5" width="68" height="16" fill="white"/>
<path d="M280.5 37.5H346.5V64C346.5 69.5228 342.023 74 336.5 74H290.5C284.977 74 280.5 69.5228 280.5 64V37.5Z" fill="#D80027"/>
<path d="M280.5 11.5C280.5 5.97715 284.977 1.5 290.5 1.5H336.5C342.023 1.5 346.5 5.97715 346.5 11.5V38H280.5V11.5Z" fill="#2E52B2"/>
<rect x="305.5" y="0.5" width="16.2462" height="74" fill="white"/>
<rect x="279.5" y="29.5" width="68" height="16" fill="white"/>
</svg>
