<svg width="415" height="73" viewBox="0 0 415 73" fill="none" xmlns="http://www.w3.org/2000/svg">
<path d="M60.0273 70C45.1607 71.3333 32.8273 72 23.0273 72C16.494 72 11.694 70.4667 8.62734 67.4C5.56068 64.3333 4.02734 59.5333 4.02734 53V21C4.02734 14 5.59401 8.93333 8.72734 5.8C11.9273 2.6 17.0273 0.999995 24.0273 0.999995H60.0273V15H28.0273C24.0273 15 22.0273 17 22.0273 21V53C22.0273 54.5333 22.4607 55.7667 23.3273 56.7C24.2607 57.5667 25.4273 58 26.8273 58C28.2273 58 29.7607 58 31.4273 58C33.094 57.9333 34.8273 57.8667 36.6273 57.8C38.4273 57.7333 40.2273 57.6667 42.0273 57.6C43.894 57.5333 46.2607 57.4 49.1273 57.2C52.0607 57 55.694 56.7667 60.0273 56.5V70ZM68.0391 0.999995H110.039C117.039 0.999995 122.106 2.6 125.239 5.8C128.439 8.93333 130.039 14 130.039 21V30C130.039 35.5333 129.106 39.8333 127.239 42.9C125.439 45.9667 122.539 48 118.539 49L131.039 71H111.539L100.039 50H86.0391V71H68.0391V0.999995ZM112.039 21C112.039 17 110.039 15 106.039 15H86.0391V36H106.039C110.039 36 112.039 34 112.039 30V21ZM270.973 71H251.973L227.973 29V71H209.973V0.999995H228.973L252.973 43V0.999995H270.973V71ZM350.88 56.5C369.147 57.5 381.514 58 387.98 58C389.514 58 390.714 57.5667 391.58 56.7C392.514 55.7667 392.98 54.5333 392.98 53V44H369.98C362.98 44 357.88 42.4333 354.68 39.3C351.547 36.1 349.98 31 349.98 24V21C349.98 14 351.547 8.93333 354.68 5.8C357.88 2.6 362.98 0.999995 369.98 0.999995H405.08V15H373.98C369.98 15 367.98 17 367.98 21V23C367.98 27 369.98 29 373.98 29H391.98C398.514 29 403.314 30.5333 406.38 33.6C409.447 36.6667 410.98 41.4667 410.98 48V53C410.98 59.5333 409.447 64.3333 406.38 67.4C403.314 70.4667 398.514 72 391.98 72C388.58 72 384.98 71.9333 381.18 71.8L371.98 71.4C365.18 71.0667 358.147 70.6 350.88 70V56.5Z" fill="#2E52B2"/>
<path d="M136 11C136 5.47715 140.477 1 146 1H162V30H136V11Z" fill="#2E52B2"/>
<path d="M203 11C203 5.47715 198.523 1 193 1H177V30H203V11Z" fill="#2E52B2"/>
<path d="M203 62C203 67.5228 198.523 72 193 72H177V43H203V62Z" fill="#D80027"/>
<path d="M136 62C136 67.5228 140.477 72 146 72H162V43H136V62Z" fill="#D80027"/>
<path d="M278 11C278 5.47715 282.477 1 288 1H304V30H278V11Z" fill="#2E52B2"/>
<path d="M345 11C345 5.47715 340.523 1 335 1H319V30H345V11Z" fill="#2E52B2"/>
<path d="M345 62C345 67.5228 340.523 72 335 72H319V43H345V62Z" fill="#D80027"/>
<path d="M278 62C278 67.5228 282.477 72 288 72H304V43H278V62Z" fill="#D80027"/>
</svg>
