<svg width="415" height="73" viewBox="0 0 415 73" fill="none" xmlns="http://www.w3.org/2000/svg">
<path d="M56.9414 70C42.0747 71.3333 29.7414 72 19.9414 72C13.4081 72 8.60807 70.4667 5.54141 67.4C2.47474 64.3333 0.941407 59.5333 0.941407 53V21C0.941407 14 2.50807 8.93333 5.64141 5.8C8.84141 2.6 13.9414 0.999995 20.9414 0.999995H56.9414V15H24.9414C20.9414 15 18.9414 17 18.9414 21V53C18.9414 54.5333 19.3747 55.7667 20.2414 56.7C21.1747 57.5667 22.3414 58 23.7414 58C25.1414 58 26.6747 58 28.3414 58C30.0081 57.9333 31.7414 57.8667 33.5414 57.8C35.3414 57.7333 37.1414 57.6667 38.9414 57.6C40.8081 57.5333 43.1747 57.4 46.0414 57.2C48.9747 57 52.6081 56.7667 56.9414 56.5V70ZM64.9531 0.999995H106.953C113.953 0.999995 119.02 2.6 122.153 5.8C125.353 8.93333 126.953 14 126.953 21V30C126.953 35.5333 126.02 39.8333 124.153 42.9C122.353 45.9667 119.453 48 115.453 49L127.953 71H108.453L96.9531 50H82.9531V71H64.9531V0.999995ZM108.953 21C108.953 17 106.953 15 102.953 15H82.9531V36H102.953C106.953 36 108.953 34 108.953 30V21ZM270.973 71H251.973L227.973 29V71H209.973V0.999995H228.973L252.973 43V0.999995H270.973V71ZM353.966 56.5C372.233 57.5 384.6 58 391.066 58C392.6 58 393.8 57.5667 394.666 56.7C395.6 55.7667 396.066 54.5333 396.066 53V44H373.066C366.066 44 360.966 42.4333 357.766 39.3C354.633 36.1 353.066 31 353.066 24V21C353.066 14 354.633 8.93333 357.766 5.8C360.966 2.6 366.066 0.999995 373.066 0.999995H408.166V15H377.066C373.066 15 371.066 17 371.066 21V23C371.066 27 373.066 29 377.066 29H395.066C401.6 29 406.4 30.5333 409.466 33.6C412.533 36.6667 414.066 41.4667 414.066 48V53C414.066 59.5333 412.533 64.3333 409.466 67.4C406.4 70.4667 401.6 72 395.066 72C391.666 72 388.066 71.9333 384.266 71.8L375.066 71.4C368.266 71.0667 361.233 70.6 353.966 70V56.5Z" fill="#2E52B2"/>
<path d="M181.926 20C181.926 16 179.926 14 175.926 14H158.926C154.926 14 152.926 16 152.926 20V52C152.926 56 154.926 58 158.926 58H175.926C179.926 58 181.926 56 181.926 52V20ZM199.926 52C199.926 59 198.326 64.1 195.126 67.3C191.992 70.4333 186.926 72 179.926 72H154.926C147.926 72 142.826 70.4333 139.626 67.3C136.492 64.1 134.926 59 134.926 52V20C134.926 13 136.492 7.93333 139.626 4.79999C142.826 1.6 147.926 -3.8147e-06 154.926 -3.8147e-06H179.926C186.926 -3.8147e-06 191.992 1.6 195.126 4.79999C198.326 7.93333 199.926 13 199.926 20V52ZM328.02 20C328.02 16 326.02 14 322.02 14H305.02C301.02 14 299.02 16 299.02 20V52C299.02 56 301.02 58 305.02 58H322.02C326.02 58 328.02 56 328.02 52V20ZM346.02 52C346.02 59 344.42 64.1 341.22 67.3C338.086 70.4333 333.02 72 326.02 72H301.02C294.02 72 288.92 70.4333 285.72 67.3C282.586 64.1 281.02 59 281.02 52V20C281.02 13 282.586 7.93333 285.72 4.79999C288.92 1.6 294.02 -3.8147e-06 301.02 -3.8147e-06H326.02C333.02 -3.8147e-06 338.086 1.6 341.22 4.79999C344.42 7.93333 346.02 13 346.02 20V52Z" fill="#D80027"/>
<rect x="74" y="11" width="40" height="29" fill="#2E52B2"/>
<path d="M96.5 9L100.204 20.4012H112.192L102.494 27.4476L106.198 38.8488L96.5 31.8024L86.8015 38.8488L90.506 27.4476L80.8076 20.4012H92.7955L96.5 9Z" fill="white"/>
<rect x="297" y="12" width="33" height="48" fill="#D80027"/>
<path d="M314.5 35L325.325 50.75H303.675L314.5 35Z" fill="white"/>
<path d="M314.5 38L325.325 22.25H303.675L314.5 38Z" fill="white"/>
<rect x="302" y="17" width="25" height="4" fill="white"/>
<rect x="302" y="52" width="25" height="4" fill="white"/>
<rect x="150" y="12" width="34" height="48" fill="#D80027"/>
<path d="M167.5 35L178.325 50.75H156.675L167.5 35Z" fill="white"/>
<path d="M167.5 38L178.325 22.25H156.675L167.5 38Z" fill="white"/>
<rect x="155" y="17" width="25" height="4" fill="white"/>
<rect x="155" y="52" width="25" height="4" fill="white"/>
</svg>
